<svg width="1920" height="1080" viewBox="0 0 1920 1080" xmlns="http://www.w3.org/2000/svg"><path d="M2295,52.99999999999991C2289.559374763213,124.3064898698924,2238.2573926547816,183.97843734123032,2202.7376214698825,236.41946960967744C2167.2178502849833,288.8605018781245,2140.4845386173533,341.2750729438484,2081.8813728906052,367.6461936106826C2023.2782071638574,394.0173142775168,1906.8038169144988,419.24967199734186,1851.1186271093948,394.64619361068264C1795.4334373042907,370.0427152240234,1797.6233385782134,279.9663555591743,1747.770234059981,220.02532329072721C1697.9171295417486,160.08429102228013,1553.9902573574532,99.50647646540659,1552,35.00000000000004C1550.0097426425468,-29.506476465406507,1674.6089882816339,-125.80303544978582,1735.8286899152627,-167.01353550171208C1797.0483915488915,-208.22403555363834,1866.0963747584963,-189.29036932870054,1919.3182098017726,-212.2630003115575C1972.540044845049,-235.23563129441447,2002.4825063267822,-308.3232431825006,2055.159700174921,-304.84932139885393C2107.83689402306,-301.37539961520724,2195.407989586425,-251.06102317615316,2235.3813728906052,-191.41946960967752C2275.3547561947853,-131.77791604320188,2300.440625236787,-18.306489869892594,2295,52.99999999999991C2289.559374763213,124.3064898698924,2238.2573926547816,183.97843734123032,2202.7376214698825,236.41946960967744" fill="#df6688"/></svg>