<svg width="1920" height="1080" viewBox="0 0 1920 1080" xmlns="http://www.w3.org/2000/svg"><path d="M2245.478237120791,1093C2232.9778345312398,1165.9285630396598,2115.653973494756,1305.531578805894,2089.3878294563915,1344.4194696096774C2063.121685418027,1383.3073604134609,2120.089167678802,1316.9564616584112,2087.8813728906052,1326.327344822701C2055.6735781024086,1335.6982279869908,1952.6958506471883,1399.1294144642534,1896.1410607272107,1400.644768595416C1839.5862708072332,1402.1601227265787,1797.576143491942,1385.86026437558,1748.5526333707403,1335.4194696096774C1699.5291232495385,1284.9786748437748,1620.822334376891,1167.639823203226,1602,1098C1583.177665623109,1028.360176796774,1592.3463301738752,973.0215626587697,1635.6186271093948,917.5805303903226C1678.8909240449143,862.1394981218755,1789.476154354472,796.058260389485,1861.633781613118,765.3538063893175C1933.7914088717637,734.64935238915,2018.104980097839,709.7714255589171,2068.5643906612695,733.3538063893174C2119.0238012247,756.9361872197176,2134.904603917114,846.9070591032716,2164.390244993701,906.8480913717187C2193.875886070288,966.7891236401658,2257.9786397103426,1020.0714369603402,2245.478237120791,1093C2232.9778345312398,1165.9285630396598,2115.653973494756,1305.531578805894,2089.3878294563915,1344.4194696096774" fill="#fee440"/></svg>