<svg width="1920" height="1080" viewBox="0 0 1920 1080" xmlns="http://www.w3.org/2000/svg"><rect width="1920" height="1080" fill="#3d1053"/><path d="M2503,48.999999999999886C2503,145.2788097213961,2414.6426244320382,259.236283632254,2361.65810473637,309.8364291641887C2308.673585040702,360.4365746961234,2260.7749256858183,311.2975685543911,2185.0928818259904,352.60087319160795C2109.4108379661625,393.9041778288248,1994.03513406097,553.2546272631241,1907.5658415774024,557.6562569874898C1821.0965490938347,562.0578867118554,1736.6685615989845,442.6350956454254,1666.2771269245852,379.0106515378022C1595.885692250186,315.38620743017896,1522.0523898763722,243.464783346402,1485.2172335310063,175.90959234175057C1448.3820771856404,108.35440133709915,1409.0126096807865,61.79252532284967,1445.266188852389,-26.32049449010634C1481.5197680239914,-114.43351430306235,1627.3614458465443,-294.15427795345073,1702.7387085606215,-352.76852653598553C1778.1159712746987,-411.3827751185203,1830.7923060436615,-404.3782930653666,1897.529765136852,-378.0059859853152C1964.2672242300423,-351.63367890526376,2025.8087398531775,-212.89627685919808,2103.163463119764,-194.534684055677C2180.5181863863504,-176.1730912521559,2295.0186819229975,-308.4255431734681,2361.65810473637,-267.83642916418864C2428.297527549743,-227.24731515490916,2503,-47.27880972139633,2503,48.999999999999886C2503,145.2788097213961,2414.6426244320382,259.236283632254,2361.65810473637,309.8364291641887" fill="#df6688"/></svg>