<svg width="1920" height="1080" viewBox="0 0 1920 1080" xmlns="http://www.w3.org/2000/svg"><path d="M386,54.99999999999993C370.44798295409294,118.1662850945131,273.66424654073495,132.06853903803037,222.95456389417413,184.95235693462672C172.2448812476133,237.83617483122308,133.89053506627965,341.33504579882174,81.74190412063504,372.302907379578C29.593273174990422,403.2707689603343,-25.74944896046847,405.40915940158555,-89.93722177969359,370.7595264191645C-154.1249945989187,336.10989343674345,-267.14348095887857,231.1542524568069,-303.3847327947156,164.4051094850518C-339.62598463055264,97.65596651329672,-349.31721432346694,45.792107906003324,-307.38473279471566,-29.735331411366047C-265.4522512659644,-105.26277072873542,-110.61963219754891,-232.9982637577957,-51.78984362220798,-288.7595264191644C7.039944953132945,-344.52078908053306,-15.74875297464088,-380.0886028440301,45.59399865732989,-364.3029073795781C106.93675028930066,-348.51721191512604,259.532332612505,-263.9291715290487,316.26666616961666,-194.04535363245233C373.0009997267283,-124.16153573585599,401.55201704590706,-8.166285094513242,386,54.99999999999993C370.44798295409294,118.1662850945131,273.66424654073495,132.06853903803037,222.95456389417413,184.95235693462672" fill="#df6688"/></svg>