<svg width="1920" height="1080" viewBox="0 0 1920 1080" xmlns="http://www.w3.org/2000/svg"><path d="M417,1122C418.1666666666667,1180.7098807540592,374.23447740883773,1257.7917085511297,331.3813728906053,1315.06607415291C288.52826837237285,1372.3404397546904,224.9885965349227,1462.2302557996113,159.8813728906053,1465.6461936106825C94.77414924628788,1469.0621314217537,17.94848865490259,1353.5994883528376,-59.26196897529917,1335.5617010193369C-136.4724266055009,1317.523913685836,-282.73062968938234,1391.346419779567,-303.38137289060523,1357.4194696096774C-324.03211609182813,1323.4925194397879,-189.83309484930305,1211.639823203226,-183.1664281826364,1132C-176.49976151596974,1052.360176796774,-278.43307281850815,934.5303067211507,-263.38137289060535,879.5805303903226C-248.32967296270257,824.6307540594944,-157.73335291208815,803.7664944713285,-92.85622861521972,802.301342015031C-27.97910431835129,800.8361895587334,56.341772639634385,844.0387077169496,125.8813728906052,870.7896156525369C195.42097314157604,897.5405235881242,275.8616017057061,920.9383922373108,324.38137289060523,962.8067896285547C372.90114407550436,1004.6751870197986,415.8333333333333,1063.2901192459408,417,1122C418.1666666666667,1180.7098807540592,374.23447740883773,1257.7917085511297,331.3813728906053,1315.06607415291" fill="#df6688"/></svg>