<svg width="1920" height="1080" viewBox="0 0 1920 1080" xmlns="http://www.w3.org/2000/svg"><rect width="1920" height="1080" fill="#3d1053"/><path d="M326.2077853045451,28.999999999999908C313.82019950999086,84.64032563401318,235.8381933806031,161.07990149551284,199.9899069340287,226.4637193921092C164.14162048745433,291.84753728870555,171.19971778077036,395.5869395417355,111.1180666250989,421.302907379578C51.03641546942747,447.01887521742054,-119.15965379306465,421.9337520245732,-160.49999999999991,380.7595264191645C-201.84034620693518,339.5853008137558,-105.44322181739338,248.68365361981387,-136.92401061651267,174.25755374712583C-168.40479941563197,99.83145387443777,-346.3418573131828,8.43637280144263,-349.38473279471566,-65.79707281696383C-352.4276082762485,-140.0305184353703,-225.26506340901233,-230.22548086954396,-155.18126350570992,-271.143119963313C-85.09746360240753,-312.060759057082,-0.4647142427452735,-338.5970549714685,71.11806662509873,-311.3029073795781C142.70084749294273,-284.00875978768767,231.80046858811306,-164.09538564190007,274.3154217013541,-107.3782344119704C316.8303748145952,-50.661083182040734,338.59537109909934,-26.640325634013358,326.2077853045451,28.999999999999908C313.82019950999086,84.64032563401318,235.8381933806031,161.07990149551284,199.9899069340287,226.4637193921092" fill="#df6688"/></svg>