<svg width="1920" height="1080" viewBox="0 0 1920 1080" xmlns="http://www.w3.org/2000/svg"><path d="M423,1.9999999999999174C401.82690711268623,64.25275915729839,279.09181086538393,104.2468545263101,227.34281556672246,171.35455346142388C175.593820268061,238.46225239653765,160.21005961758576,365.5975869191395,112.50602820803113,404.6461936106826C64.8019967984765,443.6948003022257,7.9331939591674825,432.35064761085016,-58.88137289060525,405.64619361068264C-125.69593974037798,378.9417396105151,-245.02826837237276,302.5271685447912,-288.38137289060523,244.41946960967746C-331.7344774088377,186.3117706745637,-319.66666666666663,127.63982320322586,-319,57.00000000000004C-318.33333333333337,-13.639823203225774,-324.0678107421711,-119.14510400789695,-284.38137289060535,-179.41946960967738C-244.69493503903956,-239.6938352114578,-142.18554658063036,-281.2750729438484,-80.88137289060533,-304.6461936106826C-19.577199200580303,-328.0173142775168,10.899878286009738,-336.72689229873527,83.44366924954484,-319.64619361068264C155.98746021307994,-302.56549492263,297.7886510988627,-255.76970041748072,354.38137289060523,-202.16200148236695C410.97409468234775,-148.55430254725317,444.17309288731377,-60.252759157298556,423,1.9999999999999174C401.82690711268623,64.25275915729839,279.09181086538393,104.2468545263101,227.34281556672246,171.35455346142388" fill="#fee440"/></svg>