<svg width="1920" height="1080" viewBox="0 0 1920 1080" xmlns="http://www.w3.org/2000/svg"><path d="M429,25.999999999999908C428.2511233981339,85.64820762793579,340.0719104227684,111.29693951210885,297.1925295927033,164.14893922176626C254.31314876263824,217.00093893142366,223.31714734380708,299.2729813440138,171.72371501960956,343.1119982579444C120.13028269541203,386.951015171875,49.8160211899304,436.8185614501304,-12.368064352481873,427.1830407053498C-74.55214989489414,417.5475199605692,-144.473831442705,337.55442910422977,-201.3807982348641,285.2988737892608C-258.2877650270232,233.04331847429188,-334.2383539603411,176.47447258300227,-353.80986510543653,113.64970881553613C-373.38137625053196,50.824945048069985,-338.3600825670577,-43.35143467068425,-318.80986510543653,-91.64970881553602C-299.25964764381536,-139.94798296038778,-281.0821937945352,-143.17648775709083,-236.50856033570943,-176.13993605357447C-191.93492687688368,-209.10338435005812,-120.37675094619786,-297.19519590166215,-51.36806435248196,-289.4303985944379C17.64062224123395,-281.6656012872137,118.70125030052242,-145.49950088499395,177.543559226586,-129.55115221022913C236.3858681526496,-113.60280353546432,259.7763824083306,-219.66549858088723,301.6857892038996,-193.74030654584905C343.5951959994686,-167.81511451081087,429.7488766018661,-33.648207627935975,429,25.999999999999908C428.2511233981339,85.64820762793579,340.0719104227684,111.29693951210885,297.1925295927033,164.14893922176626" fill="#df6688"/></svg>