<svg width="1920" height="1080" viewBox="0 0 1920 1080" xmlns="http://www.w3.org/2000/svg"><path d="M417,1088C419.3165601311819,1157.7527793868746,317.6497393607426,1296.145104007897,268.22817898522726,1356.4194696096774C218.80661860971193,1416.6938352114578,179.82222972621344,1436.1084062771818,120.47063774690801,1449.6461936106825C61.11904576760259,1463.1839809441833,-47.849716870207416,1452.6839809441833,-87.88137289060525,1437.6461936106825C-127.91302891100308,1422.6084062771818,-77.36619385724651,1418.8605018781245,-119.71929837547899,1359.4194696096774C-162.07240289371146,1299.9784373412303,-312.8896542474789,1159.8064898698924,-342,1081C-371.1103457525211,1002.1935101301075,-341.4011440755045,942.6882293254363,-294.38137289060535,886.5805303903226C-247.36160170570625,830.4728314552088,-128.23731965271853,764.3915937228184,-59.881372890605334,744.3538063893175C8.474573871507857,724.3160190558166,63.3859425006169,734.0956419061321,115.75430768207374,766.3538063893174C168.1226728635306,798.6119708725026,204.1212028118147,884.2950943533153,254.32881819813574,937.902793288429C304.53643358445674,991.5104922235428,414.6834398688181,1018.2472206131253,417,1088C419.3165601311819,1157.7527793868746,317.6497393607426,1296.145104007897,268.22817898522726,1356.4194696096774" fill="#fee440"/></svg>