<svg width="1920" height="1080" viewBox="0 0 1920 1080" xmlns="http://www.w3.org/2000/svg"><path d="M2298,12.999999999999925C2290.8338300194646,77.93535953582004,2170.2921912404,205.31177067456366,2135.6057533888343,263.41946960967744C2100.9193155372686,321.5271685447912,2127.6293207225,354.5698820933318,2089.8813728906052,361.6461936106826C2052.1334250587106,368.7225051280334,1973.3403165278069,344.50386358868377,1909.1180663974667,305.87733871378214C1844.8958162671265,267.2508138388805,1764.2342165081423,174.36660081356985,1704.5478721085644,129.8870443612728C1644.8615277089866,85.40748790897578,1563.9882074998616,89.71775232849171,1551,39.00000000000002C1538.0117925001384,-11.71775232849167,1580.7665360231358,-117.8823802259947,1626.6186271093948,-174.41946960967738C1672.4707181956537,-230.95655899336006,1764.386385793894,-289.51992840015674,1826.1125465175537,-300.22253630209605C1887.8387072412133,-310.92514420403535,1938.2272203256039,-267.64009180412205,1996.9755914513526,-238.63511702131325C2055.7239625771012,-209.63014223850445,2128.432038513938,-168.13187377546205,2178.602773272046,-126.19268760524321C2228.7735080301536,-84.25350143502435,2305.1661699805354,-51.93535953582018,2298,12.999999999999925C2290.8338300194646,77.93535953582004,2170.2921912404,205.31177067456366,2135.6057533888343,263.41946960967744" fill="#fee440"/></svg>