<svg width="1920" height="1080" viewBox="0 0 1920 1080" xmlns="http://www.w3.org/2000/svg"><path d="M2237.311568391429,17.999999999999872C2232.3372849322454,87.44111299441361,2380.52788583061,92.5507825421068,2373.65810473637,169.81024880229384C2366.7883236421303,247.0697150624809,2276.5276058823893,415.58246286358946,2196.0928818259904,481.5567975611221C2115.6581577695915,547.5311322586548,1966.8609250982458,601.486833768928,1891.049760397978,565.6562569874898C1815.23859569771,529.8256802060515,1804.0000699110387,332.8644476467827,1741.2258936243823,266.57333687249286C1678.4517173377258,200.282226098203,1557.666843286946,223.7644751241941,1514.4047026780397,167.90959234175057C1471.1425620691334,112.05470955930704,1465.0208146374966,21.223726657454463,1481.6530499709443,-68.55595982216822C1498.285285304392,-158.33564630179092,1542.5741040238975,-321.29977360606966,1614.1981146787252,-370.76852653598553C1685.822125333553,-420.2372794659014,1828.1042621302574,-356.23709889747386,1911.3971138999104,-365.3684774016633C1994.6899656695634,-374.49985590585277,2031.9374433647167,-445.3121389340347,2113.9552252966437,-425.55679756112227C2195.9730072285706,-405.80145618820984,2382.944414975674,-320.76256209104235,2403.5038054914717,-246.83642916418864C2424.063196007269,-172.91029623733493,2242.2858518506123,-51.44111299441387,2237.311568391429,17.999999999999872C2232.3372849322454,87.44111299441361,2380.52788583061,92.5507825421068,2373.65810473637,169.81024880229384" fill="#df6688"/></svg>