
<svg version="1.0" xmlns="http://www.w3.org/2000/svg"
 width="1200.000000pt" height="1200.000000pt" viewBox="0 0 1200.000000 1200.000000"
 preserveAspectRatio="xMidYMid meet">

<g transform="translate(0.000000,1200.000000) scale(0.100000,-0.100000)"
fill="#00736A" stroke="none">
<path d="M5670 11780 c-1047 -65 -2018 -389 -2877 -961 -314 -209 -598 -443
-883 -729 -412 -411 -664 -746 -993 -1318 -49 -85 -173 -340 -237 -487 -84
-193 -138 -342 -215 -590 -338 -1088 -338 -2302 0 -3390 77 -248 131 -397 215
-590 64 -147 188 -402 237 -487 329 -572 581 -907 993 -1318 576 -577 1219
-1001 1965 -1295 1685 -664 3584 -502 5132 438 391 238 742 515 1083 857 412
411 664 746 993 1318 121 210 317 656 398 907 162 498 238 862 285 1350 24
250 24 780 0 1030 -47 488 -123 852 -285 1350 -81 251 -277 697 -398 907 -329
572 -581 907 -993 1318 -576 577 -1219 1001 -1965 1295 -515 203 -1042 328
-1605 380 -197 19 -662 27 -850 15z m692 -100 c777 -52 1537 -259 2213 -603
118 -60 146 -75 335 -185 602 -351 1210 -898 1648 -1485 563 -753 925 -1614
1066 -2537 51 -338 61 -469 61 -870 0 -401 -10 -532 -61 -870 -89 -578 -272
-1156 -531 -1675 -439 -876 -1121 -1648 -1938 -2191 -135 -90 -201 -130 -400
-245 -375 -216 -906 -424 -1385 -542 -905 -224 -1835 -224 -2740 0 -416 102
-807 246 -1195 440 -179 90 -393 216 -590 347 -324 215 -566 416 -866 715
-298 299 -498 540 -706 852 -215 322 -360 589 -506 931 -304 709 -457 1459
-457 2238 0 1246 400 2441 1148 3429 160 211 296 366 521 592 222 222 374 356
591 521 253 192 593 405 865 541 681 340 1428 544 2180 596 177 12 571 12 747
1z"/>
<path d="M1957 8400 c246 -78 388 -168 500 -320 100 -135 153 -237 641 -1235
340 -694 764 -1528 828 -1625 117 -178 288 -300 503 -358 l96 -26 525 -3 525
-2 -100 24 c-185 44 -308 110 -430 230 -149 148 -175 195 -869 1585 -354 708
-663 1316 -687 1351 -117 173 -315 315 -531 381 -71 21 -89 22 -583 25 l-510
2 92 -29z m893 -100 c181 -37 346 -126 477 -256 80 -81 135 -165 213 -329 188
-396 265 -554 601 -1220 642 -1276 617 -1230 708 -1350 68 -89 80 -102 150
-162 l65 -55 -235 5 c-195 4 -248 8 -319 26 -214 55 -393 185 -515 376 -18 28
-327 640 -688 1360 -386 770 -675 1337 -703 1375 -25 36 -87 107 -137 158
l-92 92 189 0 c149 0 208 -4 286 -20z"/>
<path d="M4292 8415 c223 -37 433 -154 564 -314 97 -117 169 -283 198 -453
l13 -73 12 68 c34 193 114 364 228 486 148 160 306 244 535 286 63 11 -44 13
-777 13 -729 0 -839 -2 -773 -13z m1018 -122 c-82 -66 -147 -143 -195 -228
l-47 -84 -24 45 c-48 89 -104 163 -180 233 l-78 71 285 0 284 0 -45 -37z"/>
<path d="M6155 8402 c117 -36 283 -120 362 -183 81 -64 153 -152 229 -281 34
-57 236 -448 448 -870 l387 -768 -525 0 -526 0 0 -55 0 -55 550 0 551 0 222
-447 c122 -247 247 -483 276 -526 63 -90 184 -207 264 -256 104 -61 221 -100
362 -121 67 -9 1042 -13 1000 -3 -183 40 -255 66 -354 125 -127 77 -240 196
-347 368 -36 56 -724 1432 -724 1445 0 20 -583 1176 -617 1224 -139 195 -332
336 -553 403 -73 22 -88 22 -585 25 l-510 2 90 -27z"/>
<path d="M8570 8404 c-55 -20 -118 -70 -144 -115 l-20 -33 51 37 c73 53 130
76 209 83 62 5 91 0 304 -55 290 -74 384 -91 514 -91 130 0 243 19 463 77 277
72 309 78 378 66 34 -6 83 -24 114 -42 29 -18 56 -29 60 -25 3 3 -14 24 -38
45 -89 79 -190 87 -463 33 -503 -98 -541 -98 -988 -8 -212 43 -371 53 -440 28z"/>
<path d="M8625 8308 c-49 -18 -84 -47 -105 -88 -27 -54 -25 -62 5 -18 66 98
229 103 308 9 30 -36 34 -34 12 8 -20 39 -69 78 -113 91 -45 12 -68 12 -107
-2z"/>
<path d="M10185 8298 c-33 -18 -76 -61 -92 -93 -15 -29 -14 -29 24 8 48 45
120 71 178 61 51 -8 110 -46 130 -84 22 -42 28 -37 10 7 -20 47 -48 77 -90 97
-38 18 -131 21 -160 4z"/>
<path d="M8670 8150 c-19 -10 -43 -17 -52 -14 -25 7 -23 -13 2 -21 10 -3 33 1
51 10 20 11 43 15 62 11 30 -6 30 -6 12 14 -22 24 -30 24 -75 0z"/>
<path d="M10197 8153 c-15 -15 -5 -21 26 -16 23 3 37 0 46 -11 17 -20 55 -21
72 0 11 13 9 14 -14 9 -17 -5 -34 -1 -49 9 -23 16 -69 22 -81 9z"/>
<path d="M8971 8098 c-45 -153 -187 -259 -328 -245 -68 7 -145 44 -197 94
l-40 38 20 -33 c63 -111 209 -164 343 -127 116 33 199 133 216 263 8 63 3 67
-14 10z"/>
<path d="M9961 8099 c-1 -19 6 -59 15 -89 22 -74 107 -159 183 -183 114 -36
232 -11 310 65 61 61 73 90 16 41 -181 -160 -434 -79 -511 162 l-13 40 0 -36z"/>
<path d="M10480 8082 c0 -7 -16 -30 -36 -52 -82 -91 -237 -86 -318 10 -37 45
-32 20 7 -32 42 -55 96 -82 163 -81 58 2 96 18 138 60 30 29 61 91 52 101 -3
3 -6 0 -6 -6z"/>
<path d="M8460 8077 c0 -26 47 -91 82 -114 32 -21 55 -28 107 -31 58 -3 71 0
108 24 26 17 52 47 69 78 l26 51 -32 -38 c-45 -53 -97 -77 -166 -77 -73 0
-136 29 -169 78 -14 20 -25 33 -25 29z"/>
<path d="M8971 7906 c-7 -9 -20 -16 -27 -16 -8 0 -14 -4 -14 -10 0 -15 36 -12
50 5 6 8 10 19 8 26 -2 7 -8 6 -17 -5z"/>
<path d="M9091 7906 c-7 -9 -20 -16 -27 -16 -8 0 -14 -4 -14 -10 0 -15 36 -12
50 5 6 8 10 19 8 26 -2 7 -8 6 -17 -5z"/>
<path d="M9217 7907 c-3 -9 -16 -17 -27 -17 -11 0 -20 -4 -20 -10 0 -15 36
-12 50 5 6 8 10 20 8 27 -3 8 -7 6 -11 -5z"/>
<path d="M9337 7905 c-4 -8 -16 -15 -27 -15 -11 0 -20 -4 -20 -10 0 -20 48
-11 55 11 8 24 0 37 -8 14z"/>
<path d="M9457 7905 c-4 -8 -16 -15 -27 -15 -11 0 -20 -4 -20 -10 0 -20 48
-11 55 11 8 24 0 37 -8 14z"/>
<path d="M9577 7905 c-4 -8 -16 -15 -27 -15 -11 0 -20 -4 -20 -10 0 -20 48
-11 55 11 8 24 0 37 -8 14z"/>
<path d="M9697 7907 c-3 -9 -16 -17 -27 -17 -11 0 -20 -4 -20 -10 0 -5 11 -10
25 -10 26 0 40 19 33 42 -3 8 -7 6 -11 -5z"/>
<path d="M9820 7905 c-7 -8 -21 -15 -32 -15 -10 0 -16 -4 -13 -10 11 -17 44
-11 55 11 14 26 7 35 -10 14z"/>
<path d="M9941 7906 c-7 -9 -20 -16 -27 -16 -8 0 -14 -4 -14 -10 0 -15 36 -12
50 5 6 8 10 19 8 26 -2 7 -8 6 -17 -5z"/>
<path d="M9110 7799 c590 -23 850 -69 850 -150 0 -19 -13 -19 -540 -19 l-540
0 0 -35 c0 -28 4 -35 20 -35 11 0 20 6 20 13 0 11 39 37 55 37 3 0 5 -15 5
-33 0 -26 6 -36 24 -45 24 -11 25 -9 28 25 2 26 9 38 26 44 21 8 22 6 22 -42
0 -52 0 -52 68 -73 21 -7 22 -5 22 47 l0 55 50 11 c28 6 53 11 55 11 3 0 5
-44 5 -97 l0 -98 43 -27 42 -27 3 113 3 114 44 11 c24 6 46 11 49 11 3 0 6
-73 6 -163 l0 -163 75 -74 75 -74 2 229 c3 207 5 230 20 233 16 3 17 -19 20
-270 l3 -273 45 -67 c25 -37 48 -67 53 -67 4 -1 7 150 7 334 0 324 1 335 20
345 20 11 20 8 20 -387 l0 -398 47 -128 48 -128 5 518 c3 285 6 519 8 519 1 1
11 4 22 7 20 5 20 0 21 -636 1 -585 2 -648 19 -712 18 -69 18 -61 19 736 l1
806 -137 6 c-75 4 -319 6 -542 5 -368 -1 -388 -2 -211 -9z"/>
<path d="M2362 5617 c-36 -196 -117 -368 -230 -488 -148 -158 -309 -244 -527
-283 -72 -13 2 -14 765 -14 780 0 838 1 760 15 -224 39 -453 177 -573 346 -87
122 -156 294 -176 437 l-7 55 -12 -68z m105 -498 c18 -26 67 -79 110 -118 l77
-71 -277 0 c-154 0 -277 4 -277 9 0 5 10 15 23 24 75 50 169 162 219 260 l30
60 32 -59 c17 -32 46 -80 63 -105z"/>
<path d="M6526 5645 c-4 -22 -10 -53 -13 -70 -28 -156 -116 -332 -220 -444
-148 -160 -306 -244 -535 -286 -63 -11 44 -13 772 -13 465 1 832 3 815 5 -188
25 -386 115 -524 239 -137 123 -251 349 -280 554 l-8 55 -7 -40z"/>
<path d="M7641 4548 c-6 -12 -19 -45 -31 -72 -21 -51 -19 -59 16 -70 18 -6 25
3 53 64 35 79 37 90 17 90 -8 0 -21 3 -30 6 -10 4 -19 -2 -25 -18z"/>
<path d="M3185 4350 c-4 -6 -74 -10 -178 -10 -112 0 -167 -4 -157 -10 13 -8
15 -60 18 -349 2 -300 1 -341 -13 -355 -15 -15 -2 -16 158 -16 131 0 177 -3
180 -12 3 -7 6 16 6 52 0 36 -3 60 -7 54 -9 -15 -30 -17 -154 -15 l-98 1 0
125 0 125 78 0 c47 0 83 -5 90 -12 9 -9 12 1 11 48 0 32 -3 53 -6 47 -3 -9
-31 -13 -89 -13 l-84 0 0 126 0 125 130 -3 130 -3 0 53 c0 52 -3 61 -15 42z"/>
<path d="M3321 4336 c-31 -16 -39 -25 -28 -29 8 -3 62 -99 120 -214 131 -258
252 -492 253 -490 1 1 78 155 173 342 95 187 178 346 186 354 13 13 9 18 -26
38 -48 27 -49 27 -49 8 0 -26 -281 -578 -289 -569 -21 23 -287 561 -284 572 6
17 -5 15 -56 -12z"/>
<path d="M1470 3989 c0 -262 -3 -358 -12 -367 -9 -9 2 -12 52 -11 36 0 59 3
53 6 -10 3 -13 67 -13 271 l0 267 83 -85 c145 -151 396 -417 417 -441 l19 -24
1 348 c0 220 4 355 10 368 10 18 7 19 -47 19 -44 0 -54 -3 -45 -12 9 -9 12
-84 12 -278 l0 -265 -47 50 c-217 232 -339 362 -405 430 l-78 80 0 -356z"/>
<path d="M2238 4328 c9 -9 12 -83 12 -271 0 -282 4 -314 52 -372 101 -122 292
-102 366 39 26 51 27 52 32 334 l5 282 -55 0 c-42 0 -51 -3 -42 -12 9 -9 12
-83 12 -272 0 -229 -2 -265 -18 -296 -54 -109 -213 -107 -262 3 -18 38 -20 67
-20 297 0 186 3 259 12 268 9 9 -1 12 -47 12 -46 0 -56 -3 -47 -12z"/>
<path d="M4453 4328 c-6 -7 -59 -110 -118 -228 -163 -325 -215 -423 -235 -441
-17 -15 -16 -16 14 -32 77 -39 73 -38 69 -13 -3 15 13 56 46 117 l50 94 180 3
181 2 51 -101 c28 -58 48 -110 46 -120 -7 -24 -4 -24 55 8 38 21 46 29 32 33
-10 4 -86 143 -189 349 -128 256 -174 339 -182 329z m79 -282 c37 -74 64 -137
61 -140 -7 -7 -273 -8 -273 -1 0 10 135 275 140 275 3 0 35 -60 72 -134z"/>
<path d="M5523 4328 c-6 -7 -70 -132 -143 -278 -146 -292 -186 -367 -207 -391
-12 -14 -10 -18 12 -33 14 -9 36 -21 49 -25 20 -8 22 -7 19 14 -3 14 13 57 45
116 l50 94 181 3 181 2 51 -101 c28 -58 48 -110 46 -120 -7 -24 -4 -24 56 9
32 17 44 28 34 30 -11 2 -78 124 -188 345 -94 188 -172 343 -174 345 -1 1 -7
-3 -12 -10z m80 -283 c37 -74 67 -137 67 -140 0 -3 -63 -5 -140 -5 -77 0 -140
2 -140 5 0 10 135 275 140 275 3 0 36 -61 73 -135z"/>
<path d="M6187 4321 c-138 -55 -225 -178 -235 -327 -10 -165 96 -322 253 -374
96 -33 223 -13 323 51 25 16 51 25 60 22 10 -3 -3 15 -28 41 -39 41 -45 44
-51 27 -17 -45 -102 -81 -190 -81 -116 0 -214 62 -270 170 -33 63 -33 185 -1
247 33 63 74 105 134 138 47 26 63 30 138 30 72 0 92 -4 130 -25 24 -14 49
-35 55 -47 11 -22 12 -22 48 15 l36 37 -82 45 c-79 42 -86 44 -177 47 -76 3
-105 -1 -143 -16z"/>
<path d="M6709 4322 c14 -27 15 -650 1 -686 l-10 -26 57 0 c44 0 54 3 45 12
-8 8 -12 55 -12 145 0 132 0 133 23 133 17 0 60 -39 158 -142 74 -78 133 -148
133 -155 -3 -23 17 -10 54 35 29 36 32 42 16 42 -26 0 -243 218 -223 224 8 2
27 7 42 11 16 3 48 24 72 46 113 104 96 270 -34 347 -43 25 -55 27 -189 30
-142 4 -144 4 -133 -16z m285 -75 c96 -55 101 -174 11 -243 -30 -23 -47 -27
-125 -32 l-90 -5 0 152 0 151 83 0 c66 0 89 -5 121 -23z"/>
<path d="M7503 4326 c-110 -36 -208 -136 -240 -245 -22 -77 -14 -190 19 -261
31 -70 98 -137 174 -175 54 -27 68 -30 159 -30 87 0 107 3 156 26 227 107 284
400 114 588 -19 21 -63 53 -97 72 -56 29 -73 33 -153 36 -57 2 -106 -2 -132
-11z m242 -89 c103 -52 156 -130 163 -242 13 -216 -188 -368 -394 -298 -112
38 -202 177 -190 294 13 132 90 229 216 270 47 16 152 4 205 -24z"/>
<path d="M8098 4329 c9 -10 12 -95 12 -356 0 -315 -1 -343 -17 -352 -14 -8 -1
-10 52 -11 54 0 66 3 57 12 -8 8 -12 55 -12 147 l0 136 93 0 c83 0 97 3 140
28 26 16 60 47 75 70 23 36 27 52 27 118 0 66 -4 81 -28 117 -15 23 -46 54
-69 69 -40 27 -47 28 -192 31 -123 3 -149 1 -138 -9z m278 -80 c105 -50 113
-192 15 -247 -31 -18 -55 -22 -120 -22 l-81 0 0 145 0 145 72 0 c52 0 83 -6
114 -21z"/>
<path d="M8854 4322 c-303 -108 -327 -524 -39 -675 56 -29 67 -32 160 -32 89
0 107 3 162 29 68 31 138 98 171 162 92 181 16 408 -168 500 -73 37 -207 44
-286 16z m249 -81 c56 -27 118 -88 143 -139 23 -48 30 -160 14 -219 -18 -63
-76 -132 -141 -168 -48 -27 -63 -30 -139 -30 -69 0 -93 5 -127 23 -108 57
-164 147 -165 261 -2 133 73 240 199 287 53 20 159 13 216 -15z"/>
<path d="M9468 3983 c2 -280 0 -358 -10 -365 -7 -4 64 -8 158 -8 119 0 174 -4
182 -12 9 -9 12 2 12 53 0 35 -4 59 -8 52 -5 -8 -49 -13 -130 -15 l-122 -3 0
315 c0 233 3 319 12 328 9 9 0 12 -42 12 l-55 0 3 -357z"/>
<path d="M9940 4321 c6 -13 10 -141 10 -350 0 -286 -2 -332 -16 -345 -14 -15
-9 -16 53 -16 51 1 64 3 51 11 -17 9 -18 37 -18 354 0 317 1 345 18 354 13 8
2 10 -46 11 -59 0 -62 -1 -52 -19z"/>
<path d="M10314 4326 c-79 -35 -135 -150 -113 -231 19 -67 39 -86 145 -135 95
-45 102 -51 124 -95 22 -44 22 -50 8 -94 -18 -58 -62 -91 -123 -91 -50 0 -106
34 -115 68 -5 22 -6 21 -45 -18 -21 -22 -33 -40 -26 -40 7 0 28 -13 46 -29 18
-16 54 -37 79 -46 120 -46 265 58 266 190 0 65 -41 140 -96 175 -27 16 -52 30
-57 30 -27 0 -115 53 -125 75 -40 88 26 185 125 185 35 0 76 -27 66 -43 -8
-14 21 7 61 45 21 20 25 28 14 28 -9 0 -35 9 -59 20 -51 23 -130 25 -175 6z"/>
<path d="M6770 2830 c-90 -105 -81 -117 36 -44 81 51 103 76 83 100 -25 31
-56 16 -119 -56z"/>
<path d="M5040 2703 c0 -2 -1 -132 -1 -290 l0 -288 67 -3 67 -3 -5 126 c-3 69
-2 125 1 125 88 7 156 21 187 40 65 41 93 144 58 212 -37 71 -94 90 -261 86
-62 -2 -113 -4 -113 -5z m224 -66 c47 -47 41 -156 -11 -196 -14 -12 -40 -21
-58 -21 l-33 0 2 120 1 120 38 0 c26 0 45 -7 61 -23z"/>
<path d="M5520 2703 c0 -2 -1 -132 -1 -290 l0 -288 161 -3 160 -2 0 33 0 34
-98 -5 -98 -4 -3 112 -3 113 101 -5 101 -5 0 34 0 33 -101 0 -102 0 7 53 c3
28 6 70 6 92 l0 41 95 -4 95 -4 0 33 0 34 -160 0 c-88 1 -160 -1 -160 -2z"/>
<path d="M5955 2413 l0 -293 67 0 67 0 -6 135 c-4 78 -2 135 3 135 5 0 18 -17
30 -38 11 -20 45 -81 75 -134 l54 -98 73 0 c39 0 72 2 72 6 0 3 -26 44 -57 92
-99 152 -116 184 -101 192 69 40 89 58 103 92 31 77 9 149 -57 185 -27 15 -58
18 -178 18 l-145 1 0 -293z m243 223 c13 -12 17 -34 17 -85 0 -78 -14 -103
-72 -122 -60 -19 -63 -13 -63 117 l0 117 51 -5 c28 -3 58 -13 67 -22z"/>
<path d="M6480 2492 c0 -227 6 -259 53 -310 47 -51 94 -66 203 -67 95 0 103 2
149 30 34 21 56 45 74 78 22 44 25 64 33 255 5 113 7 211 4 217 -2 5 -19 10
-37 9 l-34 -1 -5 -214 c-5 -205 -6 -216 -30 -259 -19 -34 -35 -48 -66 -59 -53
-19 -125 -8 -164 25 -47 40 -55 85 -53 309 l1 200 -64 0 -64 0 0 -213z"/>
</g>
</svg>
